# xmcd
#
# Track frame offsets: 
#        150
#        30897
#        91515
#        118258
#        151948
#        209225
#
# Disc length: 3390 seconds
#
# Revision: 2
# Processed by: cddbd v1.5.2PL0 Copyright (c) Steve Scherf et al.
# Submitted via: ExactAudioCopy v0.99pb4
#
DISCID=430d3c06
DTITLE=Satoko Fuji Quartet - Angelona
DYEAR=2005
DGENRE=Free
TTITLE0=An Alligator in Your Wallet
TTITLE1=Collage - in the night
TTITLE2=A Poor Sailor
TTITLE3=A Journey into the West
TTITLE4=Cicada
TTITLE5=A Brick House
EXTD=YEAR: 2005
EXTT0=
EXTT1=
EXTT2=
EXTT3=
EXTT4=
EXTT5=
PLAYORDER=
